<svg height="600" version="1.1" width="800" xmlns="http://www.w3.org/2000/svg" preserveAspectRatio="xMidYMid meet" viewBox="0 0 600 442" xmlns:xlink="http://www.w3.org/1999/xlink"><desc>Created with Snap</desc><defs/><g id="root" contentwidth="329.35833333333335" contentheight="91.35">
          <rect height="20%" width="2000%" y="-1000%" x="-1000%" style="" fill=""/>
          <g class="content" id="content" transform="matrix(1,0,0,1,234.3708,248.45)">
            <g class="icon" style="mask: url(#mask);">
            <svg height="91.35" version="1.1" width="91.35" xmlns="http://www.w3.org/2000/svg" x="-99.05" y="-73.125"><desc>Created with Snap</desc><defs/><svg xmlns="http://www.w3.org/2000/svg" xmlns:xlink="http://www.w3.org/1999/xlink" preserveAspectRatio="xMidYMid meet" viewBox="0 0 512 512">
<g fill="#e06b55">
<svg class="icon" preserveAspectRatio="xMidYMid meet" version="1.0" viewBox="0 0 512 512">
<g>
<svg height="512" preserveAspectRatio="xMidYMid meet" width="512">
<svg version="1.1" viewBox="0 0 167 167">
<path d="M0 0 C1.4 0.8 2.7 1.7 4 2.6 C5 3.2 5 3.2 6 3.9 C8 5.1 9.9 6.5 11.9 7.8 C16.3 10.9 16.3 10.9 21 13.6 C21 12 21 10.3 21 8.6 C25.6 8.6 30.2 8.6 35 8.6 C35 9.6 35 10.7 34.9 11.7 C35 15.8 35.2 19.6 36 23.6 C37.8 25.3 37.8 25.3 40.1 26.1 C42.3 27 42.3 27 44 28.6 C44.7 33.7 44.5 38.5 44 43.6 C41 42.5 38.7 41.4 36 39.6 C35.7 49.2 35.3 58.7 35 68.6 C33 68.3 31 67.9 29 67.6 C23.3 70.1 18.9 74 14.1 78 C12 79.6 12 79.6 10 79.6 C10 69 10 58.5 10 47.6 C1.1 47.6 -7.8 47.6 -17 47.6 C-17 58.8 -17 70 -17 81.6 C-25.6 81.6 -34.2 81.6 -43 81.6 C-43.3 68.1 -43.7 54.5 -44 40.6 C-46.3 41.9 -48.6 43.2 -51 44.6 C-52.6 31.8 -52.6 31.8 -49.2 27.2 C-46.9 25.5 -44.5 24.1 -41.9 22.7 C-38.9 21 -36.1 19.2 -33.3 17.3 C-30.9 15.8 -28.4 14.3 -25.9 12.7 C-22.6 10.7 -19.4 8.5 -16.3 6.2 C-15.5 5.7 -14.8 5.2 -14 4.6 C-12.6 3.6 -11.2 2.6 -9.8 1.6 C-6.1 -1 -4.2 -2 0 0 Z " fill="#3395ED" transform="translate(86.99609375,32.39453125)"/>
<path d="M0 0 C2.2 0.9 2.2 0.9 4.2 2.9 C3.9 6 3.9 6 3.2 8.9 C3.2 9.3 3.2 9.6 3.2 9.9 C3.9 9.2 3.9 9.2 4.6 8.4 C9.4 3.1 9.4 3.1 13.5 2.4 C16.2 2.9 16.2 2.9 18.2 4.9 C18.7 8.1 18.5 9.5 16.7 12.2 C16 12.8 15.4 13.5 14.7 14.2 C14.1 14.9 13.4 15.6 12.8 16.4 C12 17.1 12 17.1 11.2 17.9 C12 17.3 12.7 16.6 13.4 15.9 C16.5 13.8 17.6 13.3 21.2 13.9 C22.2 14.9 22.2 14.9 23.2 15.9 C23 20.8 21.5 23.4 18.2 26.9 C19.2 27 20.1 27 21.1 27.1 C22.1 27.4 23.2 27.6 24.2 27.9 C25.6 30.5 25.6 30.5 26.2 32.9 C14.8 47.7 -2.7 57.3 -21 60.5 C-34.7 62.1 -47.6 61.2 -60.8 56.9 C-61.8 56.6 -62.9 56.2 -63.9 55.9 C-80.3 49.8 -93.5 37.4 -102.8 22.9 C-103.2 22.2 -103.7 21.5 -104.1 20.8 C-105.3 18.9 -105.3 18.9 -106.8 15.9 C-106.4 15.3 -106.1 14.6 -105.8 13.9 C-105.2 14.3 -104.5 14.7 -103.9 15.1 C-92.2 22.5 -80.4 25.7 -66.5 22.7 C-54.8 19.4 -45.3 13.4 -36.1 5.7 C-33.8 3.9 -33.8 3.9 -31.1 3.5 C-28.8 3.9 -28.8 3.9 -27 5.1 C-25.2 7.9 -25.2 9.6 -25.8 12.9 C-28.1 15.6 -28.1 15.6 -30.8 17.9 C-31.8 19.4 -31.8 19.4 -32.8 20.9 C-23.8 15.6 -15.2 10.1 -7.4 3.2 C-3.4 -0.1 -3.4 -0.1 0 0 Z M-3.8 13.9 C-4.8 15.4 -4.8 15.4 -5.8 16.9 C-4.4 16.3 -3.1 15.6 -1.8 14.9 C-2.4 14.6 -3.1 14.3 -3.8 13.9 Z M-8.8 17.9 C-9.8 19.4 -9.8 19.4 -10.8 20.9 C-9.4 20.3 -8.1 19.6 -6.8 18.9 C-7.4 18.6 -8.1 18.3 -8.8 17.9 Z M-12.8 20.9 C-13.1 21.6 -13.4 22.2 -13.8 22.9 C-12.8 22.6 -11.8 22.3 -10.8 21.9 C-11.4 21.6 -12.1 21.3 -12.8 20.9 Z M5.2 21.9 C4.2 23.4 4.2 23.4 3.2 24.9 C4.6 24.3 5.9 23.6 7.2 22.9 C6.6 22.6 5.9 22.3 5.2 21.9 Z M-15.8 22.9 C-16.1 23.6 -16.4 24.2 -16.8 24.9 C-15.8 24.6 -14.8 24.3 -13.8 23.9 C-14.4 23.6 -15.1 23.3 -15.8 22.9 Z M-20.8 25.9 C-21.1 26.6 -21.4 27.2 -21.8 27.9 C-20.8 27.6 -19.8 27.3 -18.8 26.9 C-19.4 26.6 -20.1 26.3 -20.8 25.9 Z M0.2 25.9 C-0.1 26.6 -0.4 27.2 -0.8 27.9 C0.2 27.6 1.2 27.3 2.2 26.9 C1.6 26.6 0.9 26.3 0.2 25.9 Z M-3.8 28.9 C-4.1 29.6 -4.4 30.2 -4.8 30.9 C-3.8 30.6 -2.8 30.3 -1.8 29.9 C-2.4 29.6 -3.1 29.3 -3.8 28.9 Z M-6.8 30.9 C-7.1 31.6 -7.4 32.2 -7.8 32.9 C-6.8 32.6 -5.8 32.3 -4.8 31.9 C-5.4 31.6 -6.1 31.3 -6.8 30.9 Z M11.2 31.9 C10.2 33.4 10.2 33.4 9.2 34.9 C10.6 34.3 11.9 33.6 13.2 32.9 C12.6 32.6 11.9 32.3 11.2 31.9 Z M-11.8 33.9 C-12.1 34.6 -12.4 35.2 -12.8 35.9 C-11.8 35.6 -10.8 35.3 -9.8 34.9 C-10.4 34.6 -11.1 34.3 -11.8 33.9 Z M6.2 35.9 C5.9 36.6 5.6 37.2 5.2 37.9 C6.2 37.6 7.2 37.3 8.2 36.9 C7.6 36.6 6.9 36.3 6.2 35.9 Z " fill="#F7AE48" transform="translate(117.76953125,102.07421875)"/>
<path d="M0 0 C1.6 1.4 3.2 2.8 4.7 4.2 C4.4 4.9 4 5.5 3.7 6.2 C2.7 5.5 2.7 5.5 1.7 4.9 C-15.3 -6.6 -34.4 -10.5 -54.6 -6.6 C-72.6 -2.1 -88.4 7.7 -98.5 23.5 C-108.4 40.5 -112.7 58.1 -108.6 77.6 C-106.7 84.7 -103.7 90.6 -99.8 96.8 C-98.3 99.2 -98.3 99.2 -97.3 102.2 C-106.7 101.9 -115.2 97.9 -121.8 91.2 C-130.6 80 -130.5 65.8 -129.3 52.2 C-126.9 33.2 -116 13.4 -101.3 1.2 C-70.4 -20.9 -31.2 -24.1 0 0 Z " fill="#FB559D" transform="translate(133.30859375,20.78125)"/>
<path d="M0 0 C2.5 2 4.9 4 7.3 6.1 C7.9 6.6 8.6 7.2 9.2 7.8 C21.7 19.4 28.2 36.2 29.6 52.9 C30.2 72.8 24 90.2 12.3 106.1 C12 105.4 11.8 104.8 11.5 104.1 C10.5 101.9 10.5 101.9 8.2 101.5 C7.6 101.3 6.9 101.2 6.3 101.1 C6.4 100.5 6.6 99.9 6.8 99.3 C6.9 98.5 7.1 97.7 7.3 96.8 C7.5 96 7.7 95.3 7.9 94.4 C8.3 92 8.1 90.4 7.3 88.1 C5.3 87.6 5.3 87.6 3.3 87.1 C3.7 85.8 4.1 84.6 4.6 83.3 C5.2 81.6 5.7 79.8 6.3 78.1 C6.6 77.2 6.9 76.4 7.1 75.5 C12.3 58.2 9.7 41.1 1.3 25.4 C-6.5 12.4 -19.2 2.7 -33.8 -1.5 C-49 -5.2 -65.6 -4 -79.4 3.6 C-81.2 4.7 -83 5.9 -84.7 7.1 C-85.4 6.8 -86 6.4 -86.7 6.1 C-77.4 -2.6 -67.1 -7.8 -54.7 -10.9 C-54 -11.1 -53.2 -11.3 -52.4 -11.5 C-34 -14.3 -15.3 -10.8 0 0 Z " fill="#50B9FE" transform="translate(133.71875,26.91796875)"/>
<path d="M0 0 C5.7 2.5 10.8 5.7 15.9 9.2 C20.3 12.3 20.3 12.3 25 15 C25 13.4 25 11.7 25 10 C29.6 10 34.2 10 39 10 C39 11 39 12 38.9 13.1 C39 17.2 39.2 21 40 25 C41.8 26.7 41.8 26.7 44.1 27.5 C46.3 28.4 46.3 28.4 48 30 C48.7 35.1 48.5 39.9 48 45 C45 43.9 42.7 42.8 40 41 C39.7 50.6 39.3 60.1 39 70 C36 69.5 36 69.5 33 69 C27.3 71.5 22.9 75.4 18.1 79.4 C16 81 16 81 14 81 C14 70.4 14 59.9 14 49 C5.1 49 -3.8 49 -13 49 C-13 60.2 -13 71.4 -13 83 C-13.3 83 -13.7 83 -14 83 C-14 71.5 -14 59.9 -14 48 C-9 48 -4.1 48 1 48 C1 32.8 1 17.6 1 2 C0 1.7 -1 1.3 -2 1 C-1.3 0.7 -0.7 0.3 0 0 Z " fill="#4EB9FE" transform="translate(83,31)"/>
<path d="M0 0 C1.5 0.8 1.5 0.8 3.1 1.7 C12.1 6.6 12.1 6.6 21.9 8.9 C27.8 9.6 30 12.8 33.6 17.3 C44.5 29.6 62.2 37.1 78.5 38.2 C88.7 38.6 98.3 38.6 108 35 C109.3 34.7 110.7 34.3 112 34 C112 35 112 36 112 37 C90.4 47.4 69.1 50.6 46 43 C45 42.7 43.9 42.3 42.8 42 C23.9 35 9.2 19.6 0 2 C0 1.3 0 0.7 0 0 Z " fill="#F4902C" transform="translate(11,116)"/>
<path d="M0 0 C0 0.7 0 1.3 0 2 C-1.1 3 -2.3 3.9 -3.4 4.8 C-11.8 11.8 -17.8 22.6 -21 33 C-21.3 34.1 -21.3 34.1 -21.7 35.1 C-26.4 53.4 -22.7 74.5 -14 91 C-13 92 -12 93 -11 94 C-9.9 95.5 -8.8 97 -7.8 98.6 C-7.3 99.3 -6.8 100.1 -6.2 100.9 C-5 103 -5 103 -5 105 C-14.4 104.6 -22.9 100.7 -29.5 93.9 C-38.3 82.8 -38.2 68.5 -37 55 C-34.5 35.1 -22.9 15.1 -7.3 2.6 C-4.6 0.8 -3.3 0 0 0 Z " fill="#E5386A" transform="translate(41,18)"/>
<path d="M0 0 C6.6 1.9 10.9 5.5 16 10 C16.6 10.6 17.3 11.1 18 11.7 C30.4 23.3 36.9 40.1 38.3 56.8 C38.9 76.7 32.7 94.1 21 110 C20.8 109.4 20.5 108.7 20.2 108.1 C19.2 105.8 19.2 105.8 16.9 105.4 C16.3 105.2 15.7 105.1 15 105 C15.2 104.4 15.3 103.8 15.5 103.2 C15.7 102.4 15.9 101.6 16.1 100.8 C16.3 100 16.5 99.2 16.7 98.4 C17 95.9 16.8 94.3 16 92 C15.3 92 14.7 92 14 92 C14.8 86.3 17.6 81.8 20.2 76.9 C24.3 68.4 25.5 60.5 25.4 51.2 C25.4 50.1 25.4 49.1 25.4 48 C25.1 31.6 19 18.3 7.2 6.8 C5 4.9 5 4.9 2.2 3.4 C1.5 2.9 0.8 2.5 0 2 C0 1.3 0 0.7 0 0 Z " fill="#3797EE" transform="translate(125,23)"/>
<path d="M0 0 C0.7 0.3 1.3 0.7 2 1 C2 2 2 3 2 4 C0.1 5 -1.9 6 -3.8 7 C-5.4 7.8 -5.4 7.8 -7.1 8.7 C-10 10 -10 10 -13 10 C-8.8 6.3 -4.7 3 0 0 Z " fill="#6FC3FD" transform="translate(60,23)"/>
<path d="M0 0 C-3.6 2 -7.3 4 -11 6 C-11.7 5.3 -12.3 4.7 -13 4 C-11.6 3.1 -10.2 2.3 -8.8 1.4 C-8 1 -7.2 0.5 -6.4 -0 C-4 -1 -4 -1 0 0 Z " fill="#EB5180" transform="translate(52,13)"/>
<path d="M0 0 C3.8 1.1 6.5 1.9 9 5 C5.3 4.5 3.2 4.1 0 2 C0 1.3 0 0.7 0 0 Z " fill="#4AA3F0" transform="translate(125,23)"/>
</svg>
</svg>
</g>
</svg>
</g>
</svg></svg></g>
            <g id="icon_name_and_slogan_gap">
            </g>
            <g class="name_and_slogan" id="name_and_slogan_id">
              <g class="name"><g id="nameDefaultGroup"><path d="M4.8 -52.9Q4.8 -55.8 6.2 -56.9Q7.5 -57.9 11.4 -57.9L11.4 -57.9Q13.3 -57.9 14.5 -57.7Q15.7 -57.5 16.4 -57Q17.1 -56.4 17.4 -55.4Q17.6 -54.4 17.6 -52.9L17.6 -52.9Q17.6 -51.3 17.4 -50.3Q17.1 -49.3 16.4 -48.8Q15.7 -48.2 14.5 -48Q13.3 -47.8 11.4 -47.8L11.4 -47.8Q9.4 -47.8 8.1 -48Q6.8 -48.2 6.1 -48.7Q5.4 -49.3 5.1 -50.2Q4.8 -51.2 4.8 -52.9L4.8 -52.9M5.1 -37.9Q5.1 -41.1 8.3 -41.1L8.3 -41.1L14.5 -41.1Q16.2 -41.1 16.8 -40Q17.3 -39 17.3 -37.9L17.3 -37.9L17.3 -0.8Q17.3 2.2 14.6 2.2L14.6 2.2L7.9 2.2Q6.6 2.2 5.9 1.5Q5.1 0.9 5.1 -0.8L5.1 -0.8L5.1 -37.9M23.9 -53Q23.3 -55.5 24.3 -56.3Q25.3 -57 26.9 -57L26.9 -57L35 -57Q37.8 -57 38.3 -54.6L38.3 -54.6L45.8 -16.2L56.6 -55Q57 -56.6 58.2 -56.8Q59.3 -57 60.9 -57L60.9 -57Q62.5 -57 63.6 -56.8Q64.7 -56.6 65.1 -55L65.1 -55L75.4 -16.2L83.4 -54.6Q83.9 -57 86.8 -57L86.8 -57L94.6 -57Q96.2 -57 97.2 -56.3Q98.2 -55.5 97.5 -53L97.5 -53L84.6 -2Q84.1 -0.4 83.5 0.4Q82.9 1.3 82.2 1.6Q81.4 2 80.5 2.1Q79.6 2.2 78.5 2.2L78.5 2.2Q77 2.2 76 2Q75 1.9 74.2 1.5Q73.5 1 73 0.2Q72.5 -0.6 72.1 -2L72.1 -2L60.9 -44.5L49.7 -2Q49.3 -0.6 48.8 0.2Q48.2 1 47.5 1.5Q46.7 1.9 45.6 2Q44.6 2.2 43.1 2.2L43.1 2.2Q42 2.2 41.1 2.1Q40.2 2 39.4 1.6Q38.6 1.3 38 0.4Q37.4 -0.4 36.8 -2L36.8 -2L23.9 -53M102.1 -19.5Q102.1 -25.6 104 -29.8Q105.9 -34.1 109 -36.8Q112.2 -39.4 116 -40.7Q119.9 -41.9 123.8 -41.9L123.8 -41.9Q127.4 -41.9 131.3 -40.8Q135.1 -39.7 138.3 -37Q141.4 -34.4 143.5 -30.1Q145.5 -25.8 145.5 -19.5L145.5 -19.5Q145.5 -13.5 143.7 -9.2Q141.8 -5 138.8 -2.3Q135.8 0.4 131.8 1.7Q127.9 3 123.8 3L123.8 3Q119.9 3 116 1.8Q112.2 0.6 109 -2.1Q105.9 -4.7 104 -9Q102.1 -13.3 102.1 -19.5L102.1 -19.5M114.2 -19.5Q114.2 -14.7 114.9 -11.2Q115.7 -7.8 117 -5.6Q118.3 -3.4 120.1 -2.3Q121.8 -1.2 123.8 -1.2L123.8 -1.2Q125.8 -1.2 127.5 -2.3Q129.2 -3.4 130.5 -5.6Q131.8 -7.8 132.6 -11.2Q133.4 -14.7 133.4 -19.5L133.4 -19.5Q133.4 -24.3 132.6 -27.8Q131.8 -31.3 130.5 -33.5Q129.2 -35.8 127.5 -36.8Q125.8 -37.9 123.8 -37.9L123.8 -37.9Q121.8 -37.9 120.1 -36.8Q118.3 -35.8 117 -33.5Q115.7 -31.3 114.9 -27.8Q114.2 -24.3 114.2 -19.5L114.2 -19.5M152.2 -37.9Q152.2 -41.1 155.4 -41.1L155.4 -41.1L161.5 -41.1Q163.3 -41.1 163.8 -40Q164.3 -39 164.3 -37.9L164.3 -37.9L164.3 -34.8Q164.8 -36.2 165.6 -37.4Q166.3 -38.7 167.4 -39.7Q168.6 -40.7 170 -41.3Q171.4 -41.9 173.2 -41.9L173.2 -41.9Q175.5 -41.9 177.3 -41.5Q179 -41 180.4 -39.8L180.4 -39.8Q181.5 -38.8 181.7 -37.4Q181.8 -36.1 179.8 -34.2L179.8 -34.2Q178.2 -32.8 177 -32.2Q175.7 -31.6 175 -32.6L175 -32.6Q173.8 -34.4 172.7 -35.6Q171.6 -36.7 170.2 -36.7L170.2 -36.7Q169.3 -36.7 168.3 -36Q167.4 -35.3 166.6 -34.1Q165.8 -33 165.2 -31.5Q164.6 -30.1 164.3 -28.7L164.3 -28.7L164.3 -0.8Q164.3 2.2 161.7 2.2L161.7 2.2L155 2.2Q153.7 2.2 152.9 1.5Q152.2 0.9 152.2 -0.8L152.2 -0.8L152.2 -37.9M229.9 -1Q230.6 0.2 230.1 1.2Q229.6 2.2 227.9 2.2L227.9 2.2L221.6 2.2Q219.9 2.2 219 1.8Q218 1.4 217.1 -0.3L217.1 -0.3L206.6 -20.6L203 -17.5L203 -0.8Q203 2.2 200.3 2.2L200.3 2.2L194.8 2.2Q193.5 2.2 192.8 1.5Q192 0.9 192 -0.8L192 -0.8L192 -54.6Q192 -57.8 195.2 -57.8L195.2 -57.8L200.2 -57.8Q201.9 -57.8 202.4 -56.8Q203 -55.7 203 -54.6L203 -54.6L203 -27.4L217.7 -39.6Q218.6 -40.5 219.4 -40.8Q220.1 -41.1 221.1 -41.1L221.1 -41.1L227.8 -41.1Q229.4 -41.1 229.6 -40.5Q229.8 -39.8 228.7 -39L228.7 -39L214.6 -27.1L229.9 -1z" style="" fill="#333333" id="namepathdata"/></g></g>
              <g class="slogan"><g id="sloganDefaultGroup"/></g>
            </g>
            <g class="border">
            </g>
          </g>
          
          <defs id="defs">
            <mask xmlns="http://www.w3.org/2000/svg" id="mask">
                <rect id="showAll" fill="white" x="-99.05" y="-73.125" width="91.35" height="91.35"/>
                <rect id="hideNameBg" fill="black" x="0" y="0" width="0" height="0" stroke-width="2" stroke="black"/>
                <rect id="hideSloganBg" fill="black" x="0" y="0" width="0" height="0" stroke-width="2" stroke="black"/>
            <path d="M4.8 -52.9Q4.8 -55.8 6.2 -56.9Q7.5 -57.9 11.4 -57.9L11.4 -57.9Q13.3 -57.9 14.5 -57.7Q15.7 -57.5 16.4 -57Q17.1 -56.4 17.4 -55.4Q17.6 -54.4 17.6 -52.9L17.6 -52.9Q17.6 -51.3 17.4 -50.3Q17.1 -49.3 16.4 -48.8Q15.7 -48.2 14.5 -48Q13.3 -47.8 11.4 -47.8L11.4 -47.8Q9.4 -47.8 8.1 -48Q6.8 -48.2 6.1 -48.7Q5.4 -49.3 5.1 -50.2Q4.8 -51.2 4.8 -52.9L4.8 -52.9M5.1 -37.9Q5.1 -41.1 8.3 -41.1L8.3 -41.1L14.5 -41.1Q16.2 -41.1 16.8 -40Q17.3 -39 17.3 -37.9L17.3 -37.9L17.3 -0.8Q17.3 2.2 14.6 2.2L14.6 2.2L7.9 2.2Q6.6 2.2 5.9 1.5Q5.1 0.9 5.1 -0.8L5.1 -0.8L5.1 -37.9M23.9 -53Q23.3 -55.5 24.3 -56.3Q25.3 -57 26.9 -57L26.9 -57L35 -57Q37.8 -57 38.3 -54.6L38.3 -54.6L45.8 -16.2L56.6 -55Q57 -56.6 58.2 -56.8Q59.3 -57 60.9 -57L60.9 -57Q62.5 -57 63.6 -56.8Q64.7 -56.6 65.1 -55L65.1 -55L75.4 -16.2L83.4 -54.6Q83.9 -57 86.8 -57L86.8 -57L94.6 -57Q96.2 -57 97.2 -56.3Q98.2 -55.5 97.5 -53L97.5 -53L84.6 -2Q84.1 -0.4 83.5 0.4Q82.9 1.3 82.2 1.6Q81.4 2 80.5 2.1Q79.6 2.2 78.5 2.2L78.5 2.2Q77 2.2 76 2Q75 1.9 74.2 1.5Q73.5 1 73 0.2Q72.5 -0.6 72.1 -2L72.1 -2L60.9 -44.5L49.7 -2Q49.3 -0.6 48.8 0.2Q48.2 1 47.5 1.5Q46.7 1.9 45.6 2Q44.6 2.2 43.1 2.2L43.1 2.2Q42 2.2 41.1 2.1Q40.2 2 39.4 1.6Q38.6 1.3 38 0.4Q37.4 -0.4 36.8 -2L36.8 -2L23.9 -53M102.1 -19.5Q102.1 -25.6 104 -29.8Q105.9 -34.1 109 -36.8Q112.2 -39.4 116 -40.7Q119.9 -41.9 123.8 -41.9L123.8 -41.9Q127.4 -41.9 131.3 -40.8Q135.1 -39.7 138.3 -37Q141.4 -34.4 143.5 -30.1Q145.5 -25.8 145.5 -19.5L145.5 -19.5Q145.5 -13.5 143.7 -9.2Q141.8 -5 138.8 -2.3Q135.8 0.4 131.8 1.7Q127.9 3 123.8 3L123.8 3Q119.9 3 116 1.8Q112.2 0.6 109 -2.1Q105.9 -4.7 104 -9Q102.1 -13.3 102.1 -19.5L102.1 -19.5M114.2 -19.5Q114.2 -14.7 114.9 -11.2Q115.7 -7.8 117 -5.6Q118.3 -3.4 120.1 -2.3Q121.8 -1.2 123.8 -1.2L123.8 -1.2Q125.8 -1.2 127.5 -2.3Q129.2 -3.4 130.5 -5.6Q131.8 -7.8 132.6 -11.2Q133.4 -14.7 133.4 -19.5L133.4 -19.5Q133.4 -24.3 132.6 -27.8Q131.8 -31.3 130.5 -33.5Q129.2 -35.8 127.5 -36.8Q125.8 -37.9 123.8 -37.9L123.8 -37.9Q121.8 -37.9 120.1 -36.8Q118.3 -35.8 117 -33.5Q115.7 -31.3 114.9 -27.8Q114.2 -24.3 114.2 -19.5L114.2 -19.5M152.2 -37.9Q152.2 -41.1 155.4 -41.1L155.4 -41.1L161.5 -41.1Q163.3 -41.1 163.8 -40Q164.3 -39 164.3 -37.9L164.3 -37.9L164.3 -34.8Q164.8 -36.2 165.6 -37.4Q166.3 -38.7 167.4 -39.7Q168.6 -40.7 170 -41.3Q171.4 -41.9 173.2 -41.9L173.2 -41.9Q175.5 -41.9 177.3 -41.5Q179 -41 180.4 -39.8L180.4 -39.8Q181.5 -38.8 181.7 -37.4Q181.8 -36.1 179.8 -34.2L179.8 -34.2Q178.2 -32.8 177 -32.2Q175.7 -31.6 175 -32.6L175 -32.6Q173.8 -34.4 172.7 -35.6Q171.6 -36.7 170.2 -36.7L170.2 -36.7Q169.3 -36.7 168.3 -36Q167.4 -35.3 166.6 -34.1Q165.8 -33 165.2 -31.5Q164.6 -30.1 164.3 -28.7L164.3 -28.7L164.3 -0.8Q164.3 2.2 161.7 2.2L161.7 2.2L155 2.2Q153.7 2.2 152.9 1.5Q152.2 0.9 152.2 -0.8L152.2 -0.8L152.2 -37.9M229.9 -1Q230.6 0.2 230.1 1.2Q229.6 2.2 227.9 2.2L227.9 2.2L221.6 2.2Q219.9 2.2 219 1.8Q218 1.4 217.1 -0.3L217.1 -0.3L206.6 -20.6L203 -17.5L203 -0.8Q203 2.2 200.3 2.2L200.3 2.2L194.8 2.2Q193.5 2.2 192.8 1.5Q192 0.9 192 -0.8L192 -0.8L192 -54.6Q192 -57.8 195.2 -57.8L195.2 -57.8L200.2 -57.8Q201.9 -57.8 202.4 -56.8Q203 -55.7 203 -54.6L203 -54.6L203 -27.4L217.7 -39.6Q218.6 -40.5 219.4 -40.8Q220.1 -41.1 221.1 -41.1L221.1 -41.1L227.8 -41.1Q229.4 -41.1 229.6 -40.5Q229.8 -39.8 228.7 -39L228.7 -39L214.6 -27.1L229.9 -1z" style="stroke-width: 0;" fill="#000000" id="masknamepathdata" stroke="#000000" paint-order="stroke" transform="matrix(1,0,0,1,0,0)"/></mask>
          </defs>
          
        </g>
        </svg>